<?xml version="1.0" encoding="UTF-8" standalone="no"?>
<!-- Created with Inkscape (http://www.inkscape.org/) -->

<svg
   version="1.1"
   id="svg2"
   xml:space="preserve"
   width="1600"
   height="1600"
   viewBox="0 0 1600 1600"
   sodipodi:docname="B LOGO CIRCLE.ai"
   xmlns:inkscape="http://www.inkscape.org/namespaces/inkscape"
   xmlns:sodipodi="http://sodipodi.sourceforge.net/DTD/sodipodi-0.dtd"
   xmlns="http://www.w3.org/2000/svg"
   xmlns:svg="http://www.w3.org/2000/svg"><defs
     id="defs6"><clipPath
       clipPathUnits="userSpaceOnUse"
       id="clipPath16"><path
         d="M 0,1200 H 1200 V 0 H 0 Z"
         id="path14" /></clipPath></defs><sodipodi:namedview
     id="namedview4"
     pagecolor="#ffffff"
     bordercolor="#666666"
     borderopacity="1.0"
     inkscape:pageshadow="2"
     inkscape:pageopacity="0.0"
     inkscape:pagecheckerboard="0" /><g
     id="g8"
     inkscape:groupmode="layer"
     inkscape:label="B LOGO CIRCLE"
     transform="matrix(1.3333333,0,0,-1.3333333,0,1600)"><g
       id="g10"><g
         id="g12"
         clip-path="url(#clipPath16)"><g
           id="g18"
           transform="translate(1173.8217,601.3437)"><path
             d="m 0,0 c 0,-316.912 -256.909,-573.822 -573.822,-573.822 -316.912,0 -573.821,256.91 -573.821,573.822 0,298.072 227.271,543.065 517.989,571.134 h 111.665 C -227.272,543.065 0,298.072 0,0"
             style="fill:#171f28;fill-opacity:1;fill-rule:nonzero;stroke:none"
             id="path20" /></g><g
           id="g22"
           transform="translate(932.0506,719.8462)"><path
             d="m 0,0 c 1.111,101.983 -75.515,185.437 -167.147,185.437 h -3.266 -164.567 -164.566 -164.449 c -0.065,0 -0.118,-0.059 -0.118,-0.131 v -0.001 c 0,-67.368 49.066,-121.981 109.593,-121.981 h 54.974 164.566 15.228 149.339 v -0.342 c 1.931,0.22 3.884,0.342 5.859,0.342 30.28,0 54.855,-27.329 54.855,-61.057 0,-33.728 -24.575,-61.057 -54.855,-61.057 -1.975,0 -3.928,0.123 -5.859,0.342 v -0.342 h -149.339 -15.228 -164.448 c -0.065,0 -0.118,-0.058 -0.118,-0.131 v 0 c 0,-67.369 49.066,-121.982 109.593,-121.982 h 54.973 9.37 153.773 c 32.393,0 58.45,-29.519 56.138,-65.482 -2.036,-31.661 -25.749,-56.631 -54.714,-56.631 h -155.197 -9.252 c -0.065,0 -0.118,-0.059 -0.118,-0.132 v 0 c 0,-67.368 49.067,-121.981 109.593,-121.981 h 54.974 5.859 v 0.122 c 88.163,3.419 158.708,84.063 158.708,183.047 0,45.141 -14.675,86.455 -39.013,118.388 -0.038,0.05 -0.036,0.122 0.004,0.17 C -17.463,-91.121 -0.52,-47.763 0,0"
             style="fill:#2bab66;fill-opacity:1;fill-rule:nonzero;stroke:none"
             id="path24" /></g></g></g></g></svg>
