<?xml version="1.0" encoding="UTF-8"?>
<svg id="Layer_1" data-name="Layer 1" xmlns="http://www.w3.org/2000/svg" viewBox="0 0 1200 1200">
  <defs>
    <style>
      .cls-1 {
        fill: none;
      }

      .cls-2 {
        fill: #2aab66;
      }
    </style>
  </defs>
  <rect class="cls-1" width="1200" height="1200"/>
  <path class="cls-2" d="m1017.51,449.31c1.4-128.23-94.95-233.17-210.17-233.17h-4.11s-206.92,0-206.92,0H182.62c-.08,0-.15.07-.15.17h0c0,84.71,61.7,153.38,137.8,153.38h482.97v.43c2.43-.28,4.88-.43,7.37-.43,38.07,0,68.97,34.36,68.97,76.77s-30.9,76.77-68.97,76.77c-2.48,0-4.94-.15-7.37-.43v.43h-413.7c-.08,0-.15.07-.15.17h0c0,84.71,61.7,153.38,137.8,153.38h274.26c40.73,0,73.49,37.12,70.59,82.34-2.56,39.81-32.38,71.21-68.8,71.21h-206.77c-.08,0-.15.07-.15.17h0c0,84.71,61.7,153.38,137.8,153.38h76.49v-.15c110.86-4.3,199.56-105.7,199.56-230.16,0-56.76-18.45-108.71-49.05-148.86-.05-.06-.05-.15,0-.21,34.44-40.59,55.75-95.11,56.4-155.16Z"/>
</svg>